<?xml version="1.0" encoding="utf-8"?>
<!-- Generator: Adobe Illustrator 24.3.0, SVG Export Plug-In . SVG Version: 6.00 Build 0)  -->
<svg version="1.1" id="Layer_1" xmlns="http://www.w3.org/2000/svg" xmlns:xlink="http://www.w3.org/1999/xlink" x="0px" y="0px"
	 viewBox="0 0 400 110.5" style="enable-background:new 0 0 400 110.5;" xml:space="preserve">
<style type="text/css">
	.st0{fill:#0074E4;}
	.st1{fill:#264E86;}
</style>
<g id="SvgjsG7211" transform="matrix(1.1230361010926986,0,0,1.1230361010926986,-43.09918201558856,5.2348303385197035)">
	<path class="st0" d="M70.8,93.7c0,0,11.1-7.4,0.9-22.9c-4.8-7.2-12.6-15-11.7-22.6c-1,0.9-1.9,1.9-2.4,2.5c-1.6,2.2-2.8,4.5-3.4,7
		c-0.7,2.8-0.5,5.8,1.1,8.7c1.5,2.7,4.1,5.1,6.6,7.5c5.9,5.8,11,12,9.5,18.6C71.2,92.8,71.2,93.5,70.8,93.7z"/>
	<path class="st0" d="M78.1,79.1c0,0,17.8-11.9,1.4-36.8C71.9,30.7,59.3,18.3,60.7,6c-1.4,1.2-3.1,3-3.8,3.9
		c-2.6,3.5-4.5,7.3-5.4,11.2c-1.1,4.5-0.8,9.3,1.8,13.9c2.4,4.3,6.6,8.2,10.5,12.1c9.4,9.4,17.7,19.3,15.2,29.9
		C78.8,77.6,78.7,78.7,78.1,79.1z"/>
</g>
<g id="SvgjsG7212" transform="matrix(3.9080886501906447,0,0,3.9080886501906447,57.264336826753414,7.489410343933269)">
	<path class="st1" d="M11.2,5.8c2.5,0,4.1,1.6,4.8,2.9l-2.4,1.4c-0.8-1-1.5-1.5-2.5-1.5c-0.9,0-1.5,0.5-1.5,1.2
		c0,0.7,0.4,1.1,1.4,1.4l0.9,0.3c3.3,1.1,4.4,2.6,4.4,4.4c0,2.9-2.8,4.3-5.2,4.3c-2.6,0-4.5-1.5-5.2-3.5l2.5-1.3
		c0.5,0.9,1.2,1.9,2.8,1.9c1,0,1.8-0.4,1.8-1.4c0-0.9-0.5-1.3-2-1.8l-0.8-0.3c-2.1-0.7-3.8-1.7-3.8-4.3C6.5,7.4,8.7,5.8,11.2,5.8z
		 M24.6,9.4c1.9,0,3.9,1.3,3.9,4.6v6h-3.2v-5.7c0-1.6-0.5-2.1-1.5-2.1c-1.4,0-2.2,1.4-2.4,2V20h-3.2V5.9h3.2v5.5
		C21.5,10.9,22.6,9.4,24.6,9.4z M35.6,9.4c2.4,0,5.5,1.8,5.5,5.4c0,3.7-3.1,5.4-5.5,5.4s-5.5-1.7-5.5-5.4
		C30.1,11.2,33.2,9.4,35.6,9.4z M35.6,12.2c-1.2,0-2.4,0.9-2.4,2.6c0,1.7,1.2,2.6,2.4,2.6s2.4-0.9,2.4-2.6
		C38,13.1,36.8,12.2,35.6,12.2z M48,9.4c2.4,0,5.1,1.8,5.1,5.4c0,3.7-2.7,5.4-5.1,5.4c-1.6,0-2.5-0.9-2.7-1.2v4.8h-3.2v-6V9.6h3.2v1
		C45.5,10.3,46.4,9.4,48,9.4z M47.6,17.4c1.4,0,2.5-0.9,2.5-2.6c0-1.7-1.2-2.6-2.5-2.6c-1.3,0-2.4,0.9-2.4,2.6
		C45.2,16.5,46.3,17.4,47.6,17.4z M60,9.4c2.4,0,5.7,1.8,5,6.5h-7.3c0.4,1.1,1.3,1.6,2.6,1.6c1.3,0,1.7-0.3,2.4-0.6l1.7,1.7
		c-0.9,0.9-2.2,1.6-4.3,1.6c-2.6,0-5.7-1.8-5.7-5.4C54.5,11.2,57.7,9.4,60,9.4z M60,12.1c-0.9,0-1.8,0.5-2.2,1.6h4.4
		C61.9,12.6,60.9,12.1,60,12.1L60,12.1z M70,5.9V20h-3.2V5.9C66.8,5.9,70,5.9,70,5.9z M80.5,9.6h3.1l-6.4,14.2h-3.2l1.9-4.2
		L71.5,9.6h3.1l2.9,6.7L80.5,9.6z"/>
</g>
</svg>
