<?xml version="1.0" standalone="no"?>
<!DOCTYPE svg PUBLIC "-//W3C//DTD SVG 20010904//EN"
 "http://www.w3.org/TR/2001/REC-SVG-20010904/DTD/svg10.dtd">
<svg version="1.0" xmlns="http://www.w3.org/2000/svg"
 width="1080.000000pt" height="1080.000000pt" viewBox="0 0 1080.000000 1080.000000"
 preserveAspectRatio="xMidYMid meet">
<metadata>
Created by potrace 1.14, written by Peter Selinger 2001-2017
</metadata>
<g transform="translate(0.000000,1080.000000) scale(0.100000,-0.100000)"
fill="#000000" stroke="none">
<path d="M4484 9608 c-259 -251 -424 -481 -585 -813 -92 -191 -153 -352 -203
-535 -51 -191 -66 -305 -66 -512 0 -530 190 -952 664 -1473 55 -60 310 -321
566 -580 611 -617 861 -904 1105 -1269 293 -439 434 -804 466 -1211 12 -152 2
-289 -36 -473 -25 -124 -45 -184 -64 -196 -6 -4 -11 -12 -11 -17 0 -18 113 78
216 183 568 582 741 1375 490 2240 -89 305 -202 565 -384 883 -169 295 -317
509 -802 1160 -519 696 -751 1047 -935 1415 -144 287 -236 547 -281 795 -13
75 -18 152 -18 307 -1 115 -2 208 -4 208 -1 0 -54 -51 -118 -112z"/>
<path d="M4408 5451 c-133 -138 -230 -275 -312 -446 -210 -431 -230 -813 -61
-1160 90 -185 209 -337 483 -614 420 -425 523 -532 618 -647 296 -355 447
-629 510 -919 39 -183 9 -529 -50 -567 -6 -4 -8 -9 -5 -12 10 -10 180 157 238
233 193 255 275 503 275 826 0 286 -70 548 -230 868 -117 232 -215 378 -647
959 -405 544 -580 858 -663 1184 -21 86 -29 142 -33 263 l-6 154 -117 -122z"/>
</g>
</svg>
