<svg width="1790" height="166" viewBox="0 0 1790 166" fill="none" xmlns="http://www.w3.org/2000/svg">
<mask id="mask0" mask-type="alpha" maskUnits="userSpaceOnUse" x="0" y="0" width="1790" height="166">
<path fill-rule="evenodd" clip-rule="evenodd" d="M0 20.627C0 9.58129 8.9543 0.626953 20 0.626953H1770C1781.05 0.626953 1790 9.58126 1790 20.627V145.686C1790 156.731 1781.05 165.686 1770 165.686H20C8.95431 165.686 0 156.731 0 145.686V20.627Z" fill="#F9FAFC"/>
</mask>
<g mask="url(#mask0)">
<rect width="813.603" height="980.745" rx="20" transform="matrix(0.707318 0.706896 -0.807198 0.590281 1665.19 -366.46)" fill="url(#paint0_linear)" fill-opacity="0.9"/>
<rect width="813.603" height="980.744" rx="20" transform="matrix(0.707318 0.706896 -0.807198 0.590281 604.248 -373.129)" fill="url(#paint1_linear)" fill-opacity="0.9"/>
<rect width="813.603" height="980.744" rx="20" transform="matrix(0.707318 0.706896 -0.807198 0.590281 709.562 -479)" fill="url(#paint2_linear)" fill-opacity="0.9"/>
<rect width="835.415" height="746.207" rx="20" transform="matrix(0.896795 0.442446 -0.559511 0.828823 69.0244 -455.787)" fill="url(#paint3_linear)" fill-opacity="0.8"/>
<rect width="801.695" height="779.936" rx="20" transform="matrix(0.744456 0.667672 -0.775209 0.631705 1252.9 -466.547)" fill="url(#paint4_linear)" fill-opacity="0.8"/>
<rect width="835.415" height="746.207" rx="20" transform="matrix(0.896796 0.442445 -0.559511 0.828823 249.424 -200.696)" fill="url(#paint5_linear)" fill-opacity="0.8"/>
<rect width="1948.56" height="1829.76" rx="20" transform="matrix(0.873619 0.48661 -0.606165 0.795339 31.1372 37.041)" fill="url(#paint6_linear)"/>
</g>
<path d="M1558.68 80.2688L1534.43 108.381L1550.09 120.069L1571.68 94.9677L1567.7 78.5474L1558.68 80.2688Z" fill="#FEA65C"/>
<path d="M1549.16 113.893C1548.98 113.82 1548.8 113.748 1548.65 113.586L1535.49 102.375C1535.11 102.015 1534.86 101.602 1534.83 101.172C1534.8 100.742 1534.94 100.169 1535.27 99.8834L1555.39 77.2615C1555.8 76.7973 1556.45 76.531 1557.03 76.6587L1567.4 77.9704C1568.11 78.0448 1568.72 78.6025 1568.95 79.32L1571.74 89.2201C1571.92 89.8119 1571.74 90.4741 1571.33 90.9384L1551.21 113.56C1550.84 113.935 1550.42 114.184 1549.98 114.218C1549.65 113.984 1549.34 113.965 1549.16 113.893ZM1567.31 79.1883L1567.22 79.1521L1556.84 77.8404C1556.62 77.8575 1556.5 77.9107 1556.33 78.0534L1536.21 100.675C1536.17 100.765 1536.09 100.944 1536.06 101.033C1536.11 101.159 1536.16 101.284 1536.22 101.41L1549.38 112.622C1549.53 112.783 1549.66 112.73 1549.75 112.766C1549.87 112.713 1550 112.66 1550.13 112.607L1570.25 89.9847C1570.42 89.842 1570.4 89.627 1570.35 89.5014L1567.56 79.6013C1567.67 79.333 1567.49 79.2607 1567.31 79.1883ZM1565.61 82.1737C1565.43 82.1013 1565.34 82.0652 1565.2 81.9034C1564.59 81.3457 1564.53 80.4855 1565.05 79.753C1565.63 79.146 1566.6 79.1139 1567.25 79.5822C1567.57 79.8164 1567.73 80.1932 1567.76 80.6233C1567.79 81.0534 1567.64 81.4111 1567.39 81.7326C1566.95 82.2863 1566.25 82.427 1565.61 82.1737ZM1566.3 80.5639C1566.21 80.5278 1566.08 80.581 1565.95 80.6343C1565.91 80.7237 1565.84 80.9026 1566.02 80.9749C1566.11 81.0111 1566.29 81.0834 1566.37 80.9046C1566.49 80.8513 1566.48 80.6363 1566.3 80.5639C1566.39 80.6001 1566.39 80.6001 1566.3 80.5639Z" fill="black"/>
<path d="M1566.6 80.2087C1565.53 78.7372 1562.88 71.5143 1564.33 62.3721C1564.66 60.0998 1565.97 58.7439 1567.73 58.6067C1569.83 58.3991 1572.54 60.0015 1573.4 62.958C1574.49 66.6313 1572.59 71.8339 1567.55 78.7084L1567.51 78.7977C1567.75 78.9954 1567.93 79.0677 1567.98 79.1931L1568.02 79.1038C1573.26 71.9973 1575.2 66.7054 1574 62.7811C1573.1 59.9139 1570.4 57.7924 1567.65 58.0515C1565.45 58.223 1564.02 59.8471 1563.58 62.3874C1561.94 72.7104 1565.29 79.7925 1565.97 80.6899C1565.97 80.6899 1565.97 80.6899 1566.06 80.726C1566.15 80.7621 1566.33 80.8343 1566.46 80.7811C1566.66 80.5491 1566.74 80.3703 1566.6 80.2087Z" fill="black"/>
<path d="M1549.56 92.499C1550.68 92.1081 1551.81 92.4527 1552.34 93.7103C1552.86 94.968 1552.22 95.9706 1551.06 96.4511C1549.94 96.8421 1548.81 96.4975 1548.29 95.2398C1547.89 93.9288 1548.44 92.89 1549.56 92.499ZM1549.58 94.7059C1549.84 95.3347 1550.16 95.569 1550.64 95.445C1551.03 95.2848 1551.22 94.8369 1550.96 94.2081C1550.69 93.5793 1550.37 93.345 1549.85 93.5585C1549.5 93.6292 1549.35 93.9875 1549.58 94.7059ZM1553.92 90.9885L1555.59 90.2944L1553.95 100.641L1552.28 101.335L1553.92 90.9885ZM1556.9 95.2147C1558.02 94.8237 1559.15 95.1683 1559.59 96.3898C1560.11 97.6474 1559.48 98.65 1558.44 99.0772C1557.25 99.6473 1556.16 99.2131 1555.63 97.9555C1555.1 96.6978 1555.74 95.6952 1556.9 95.2147ZM1556.88 97.5111C1557.14 98.1399 1557.47 98.3742 1557.95 98.2502C1558.33 98.09 1558.48 97.7317 1558.26 97.0133C1558 96.3845 1557.67 96.1502 1557.15 96.3638C1556.81 96.4344 1556.65 96.7927 1556.88 97.5111Z" fill="black"/>
<path fill-rule="evenodd" clip-rule="evenodd" d="M1343.64 75.1442L1346.81 97.5288L1385.29 91.607L1383.13 70.5459L1343.64 75.1442Z" fill="#FECD5C"/>
<path d="M1345.44 101.529C1345.35 101.524 1345.26 101.518 1345.18 101.423C1345.09 101.328 1344.91 101.227 1344.93 101.047L1341.53 80.9705C1341.45 80.6952 1341.66 80.346 1342.03 80.2774L1380.47 73.2251C1380.65 73.2358 1380.74 73.2412 1380.92 73.3419C1381.01 73.4373 1381.18 73.538 1381.17 73.718L1384.57 93.7944C1384.64 94.0697 1384.43 94.4189 1384.06 94.4875L1345.54 101.534L1345.44 101.529ZM1342.79 81.3156L1345.99 100.206L1383.31 93.3593L1380.11 74.4688L1342.79 81.3156Z" fill="black"/>
<path d="M1363.96 89.8307C1363.86 89.8253 1363.86 89.8253 1363.77 89.8199L1341.72 81.4602C1341.45 81.3538 1341.29 80.9823 1341.4 80.7171C1341.51 80.4518 1341.89 80.293 1342.16 80.3993L1363.86 88.5571L1380.08 73.3905C1380.28 73.1307 1380.74 73.1576 1380.9 73.439C1381.16 73.6355 1381.13 74.0865 1380.85 74.2508L1364.34 89.6718C1364.33 89.762 1364.14 89.8414 1363.96 89.8307Z" fill="black"/>
<path fill-rule="evenodd" clip-rule="evenodd" d="M337.164 110.272L332.362 132.495L370.522 139.414L375.816 118.774L337.164 110.272Z" fill="#FECD5C"/>
<path d="M329.709 135.793C329.624 135.758 329.54 135.723 329.493 135.605C329.446 135.487 329.315 135.334 329.389 135.167L333.155 115.064C333.182 114.78 333.498 114.518 333.871 114.574L372.382 120.447C372.551 120.517 372.635 120.552 372.766 120.705C372.813 120.823 372.944 120.976 372.87 121.142L369.104 141.245C369.077 141.529 368.761 141.792 368.388 141.735L329.793 135.828L329.709 135.793ZM334.221 115.803L330.683 134.721L368.075 140.423L371.613 121.506L334.221 115.803Z" fill="black"/>
<path d="M351.12 130.793C351.036 130.758 351.036 130.758 350.952 130.723L333.135 115.606C332.919 115.417 332.899 115.014 333.094 114.799C333.29 114.584 333.7 114.558 333.916 114.746L351.47 129.557L371.947 120.512C372.226 120.332 372.647 120.508 372.704 120.828C372.883 121.099 372.698 121.516 372.371 121.577L351.531 130.767C351.494 130.85 351.288 130.863 351.12 130.793Z" fill="black"/>
<path fill-rule="evenodd" clip-rule="evenodd" d="M97.6683 122.414C98.576 122.706 99.791 120.996 100.811 121.155C101.82 121.192 102.758 123.086 103.755 123C104.751 122.914 105.319 121.014 106.292 120.683C107.277 120.475 108.79 121.826 109.626 121.383C110.462 120.941 110.271 118.982 111.095 118.417C111.795 117.863 113.759 118.682 114.447 118.005C115.134 117.329 114.208 115.557 114.759 114.769C115.31 113.981 117.339 114.176 117.766 113.399C118.192 112.621 116.792 111.137 116.957 110.259C117.247 109.37 119.204 108.831 119.234 107.841C119.263 106.85 117.411 105.899 117.316 104.92C117.22 103.94 118.857 102.688 118.637 101.72C118.417 100.751 116.263 100.566 115.931 99.7309C115.474 98.9062 116.689 97.1967 116.119 96.5052C115.549 95.8136 113.58 96.2302 112.897 95.6718C112.203 94.9909 112.771 93.0903 111.964 92.5426C111.157 91.9949 109.509 93.1245 108.589 92.71C107.669 92.2955 107.478 90.3368 106.571 90.0447C105.663 89.7526 104.448 91.4621 103.428 91.3031C102.419 91.2665 101.481 89.3723 100.484 89.4581C99.488 89.544 98.9196 91.4447 97.947 91.7754C96.9625 91.9836 95.4491 90.6327 94.613 91.0751C93.7768 91.5175 93.9678 93.4761 93.1436 94.0409C92.444 94.595 90.4801 93.7767 89.917 94.4424C89.2293 95.1189 90.1557 96.8907 89.6045 97.6789C89.0533 98.4671 87.0245 98.2716 86.5979 99.049C86.1712 99.8264 87.572 101.31 87.4064 102.189C87.1163 103.078 85.1591 103.617 85.13 104.607C85.101 105.597 86.9522 106.549 87.0477 107.528C87.1432 108.507 85.5067 109.759 85.7268 110.728C85.9468 111.696 88.1002 111.881 88.4328 112.717C88.89 113.541 87.675 115.251 88.2449 115.942C88.8147 116.634 90.7838 116.217 91.4663 116.776C92.1607 117.457 91.5924 119.357 92.3994 119.905C93.2064 120.453 94.8548 119.323 95.7745 119.738C96.5696 120.163 96.7605 122.122 97.6683 122.414Z" fill="#FEA65C"/>
<path d="M99.0835 121.576C98.2116 121.652 97.5172 120.971 96.8347 120.412C96.5617 120.189 96.1403 119.731 96.0157 119.742C95.8911 119.753 95.2922 120.051 95.0669 120.318C94.3554 120.749 93.6557 121.303 92.748 121.011C91.9768 120.831 91.5195 120.006 91.1869 119.171C91.0265 118.814 90.8542 118.335 90.5931 118.234C90.4566 118.123 89.8458 118.299 89.484 118.453C88.7486 118.64 87.764 118.848 87.0935 118.412C86.4229 117.976 86.3274 116.997 86.2558 116.263C86.22 115.895 86.1723 115.406 86.0358 115.294C85.8993 115.182 85.3891 115.103 85.0154 115.135C84.2561 115.077 83.2477 115.04 82.8024 114.338C82.3571 113.636 82.5227 112.757 82.7002 112.001C82.789 111.623 82.9903 111.112 82.8538 111.001C82.7173 110.889 82.1833 110.565 81.9222 110.464C81.1391 110.161 80.3439 109.736 80.1358 108.889C79.9277 108.043 80.3544 107.266 80.7929 106.611C81.0182 106.344 81.3441 105.823 81.3203 105.578C81.2964 105.333 80.875 104.875 80.602 104.652C80.0441 104.083 79.3496 103.402 79.5152 102.524C79.5562 101.656 80.3804 101.091 80.9674 100.67C81.2046 100.526 81.7916 100.105 81.7797 99.9831C81.7678 99.8606 81.5835 99.2593 81.4351 99.0252C81.1144 98.3121 80.6571 97.4874 81.0838 96.71C81.3858 95.9433 82.3704 95.735 83.1058 95.5482C83.4795 95.516 83.9658 95.3506 84.0785 95.2175C84.1911 95.0843 84.1314 94.4722 84.1075 94.2274C84.024 93.3705 83.9404 92.5135 84.5155 91.9702C85.0906 91.4269 85.9745 91.4741 86.8583 91.5214C87.232 91.4892 87.7422 91.5687 87.9913 91.5472C88.1039 91.4141 88.3053 90.903 88.3941 90.525C88.5716 89.769 88.8617 88.8799 89.5733 88.4482C90.2968 88.139 91.2045 88.4311 91.9877 88.7339C92.2488 88.8349 92.9074 89.1485 93.032 89.1378C93.1565 89.127 93.607 88.5944 93.7077 88.3388C94.247 87.4283 94.7982 86.6401 95.6701 86.5649C96.542 86.4898 97.2365 87.1706 97.919 87.7291C98.1919 87.9524 98.6134 88.4099 98.7379 88.3992C98.8625 88.3884 99.4614 88.0899 99.6867 87.8236C100.398 87.392 101.098 86.8379 102.006 87.13C102.777 87.3105 103.234 88.1352 103.567 88.9706C103.727 89.3272 103.899 89.8061 104.16 89.9071C104.297 90.0187 104.908 89.8427 105.145 89.6988C105.88 89.5119 106.865 89.3037 107.536 89.7397C108.206 90.1757 108.302 91.155 108.373 91.8895C108.409 92.2568 108.457 92.7464 108.605 92.9805C108.742 93.0922 109.252 93.1717 109.626 93.1395C110.385 93.1975 111.393 93.2341 111.839 93.9364C112.284 94.6387 112.118 95.5171 111.941 96.2731C111.84 96.5286 111.651 97.1622 111.787 97.2739C111.924 97.3855 112.458 97.7099 112.719 97.8108C113.502 98.1137 114.297 98.5389 114.505 99.3851C114.713 100.231 114.287 101.009 113.848 101.664C113.623 101.93 113.297 102.452 113.321 102.697C113.345 102.942 113.766 103.399 114.039 103.622C114.597 104.192 115.291 104.872 115.126 105.751C115.085 106.619 114.261 107.183 113.674 107.604C113.436 107.748 112.974 108.158 112.861 108.291C112.873 108.414 113.057 109.015 113.206 109.249C113.527 109.962 113.984 110.787 113.557 111.565C113.255 112.331 112.271 112.54 111.535 112.726C111.161 112.759 110.675 112.924 110.563 113.057C110.45 113.19 110.51 113.802 110.533 114.047C110.617 114.904 110.701 115.761 110.125 116.304C109.55 116.848 108.667 116.8 107.783 116.753C107.409 116.785 106.899 116.706 106.65 116.727C106.537 116.86 106.336 117.372 106.247 117.75C106.069 118.506 105.779 119.395 105.068 119.826C104.344 120.136 103.436 119.843 102.653 119.541C102.392 119.44 101.734 119.126 101.609 119.137C101.484 119.147 101.034 119.68 100.933 119.936C100.507 120.713 99.9554 121.501 99.0835 121.576ZM95.8605 118.151C95.9851 118.14 96.1097 118.129 96.1097 118.129C96.869 118.187 97.4269 118.756 97.9729 119.203C98.2459 119.427 98.6673 119.884 98.9164 119.863C99.041 119.852 99.4915 119.319 99.7168 119.053C100.155 118.398 100.606 117.865 101.341 117.678C102.077 117.492 102.86 117.795 103.518 118.108C103.78 118.209 104.302 118.411 104.563 118.512C104.675 118.379 104.752 117.878 104.841 117.5C105.018 116.744 105.196 115.988 105.783 115.567C106.37 115.147 107.129 115.205 107.889 115.263C108.262 115.23 108.772 115.31 109.022 115.288C109.01 115.166 108.962 114.676 108.926 114.309C108.854 113.575 108.783 112.84 109.221 112.185C109.672 111.652 110.395 111.343 111.131 111.156C111.505 111.124 111.991 110.959 112.104 110.826C112.092 110.703 111.919 110.224 111.759 109.868C111.438 109.155 111.117 108.442 111.307 107.808C111.496 107.175 112.071 106.631 112.783 106.2C113.02 106.056 113.607 105.635 113.595 105.512C113.583 105.39 113.162 104.933 112.889 104.709C112.331 104.14 111.773 103.571 111.701 102.836C111.63 102.102 112.068 101.447 112.507 100.792C112.732 100.525 113.058 100.004 113.034 99.7588C112.898 99.6471 112.364 99.3228 112.103 99.2218C111.444 98.9082 110.661 98.6054 110.34 97.8923C110.019 97.1793 110.197 96.4233 110.386 95.7898C110.475 95.4118 110.552 94.9114 110.54 94.789C110.404 94.6773 109.905 94.7202 109.52 94.63C108.76 94.572 108.001 94.514 107.443 93.9448C106.885 93.3756 106.814 92.6411 106.742 91.9066C106.706 91.5394 106.658 91.0497 106.51 90.8156C106.385 90.8263 105.899 90.9917 105.525 91.0239C104.79 91.2107 104.055 91.3975 103.396 91.0839C102.737 90.7704 102.417 90.0573 102.096 89.3443C101.947 89.1102 101.639 88.5196 101.502 88.4079C101.378 88.4186 100.903 88.7064 100.553 88.9834C99.9664 89.4043 99.2548 89.836 98.4955 89.778C97.7362 89.72 97.1783 89.1508 96.6323 88.7041C96.3593 88.4807 95.9379 88.0232 95.6888 88.0447C95.5642 88.0554 95.1137 88.588 94.8884 88.8543C94.4499 89.5094 93.9994 90.042 93.2639 90.2288C92.5285 90.4156 91.7453 90.1127 91.0867 89.7992C90.8256 89.6982 90.167 89.3846 90.0425 89.3954C89.9298 89.5285 89.853 90.0289 89.7643 90.4069C89.5867 91.1629 89.4092 91.9188 88.8222 92.3398C88.2352 92.7607 87.4759 92.7027 86.7166 92.6447C86.3429 92.6769 85.8327 92.5974 85.5836 92.6188C85.5956 92.7413 85.6433 93.2309 85.6791 93.5982C85.7507 94.3327 85.8223 95.0672 85.3838 95.7222C84.9452 96.3772 84.2097 96.5641 83.4743 96.7509C83.1006 96.7831 82.6143 96.9484 82.5017 97.0816C82.5136 97.204 82.6859 97.6829 82.8463 98.0395C83.167 98.7525 83.4878 99.4655 83.2983 100.099C83.1208 100.855 82.5338 101.276 81.8222 101.708C81.585 101.852 80.998 102.272 81.01 102.395C81.0219 102.517 81.4433 102.975 81.7163 103.198C82.2742 103.767 82.8322 104.336 82.9038 105.071C82.9754 105.805 82.5368 106.46 82.0982 107.115C81.873 107.382 81.547 107.904 81.5709 108.148C81.7074 108.26 82.2415 108.584 82.5025 108.685C83.1611 108.999 83.9443 109.302 84.265 110.015C84.5858 110.728 84.4083 111.484 84.2188 112.117C84.13 112.495 84.0532 112.996 84.0652 113.118C84.2017 113.23 84.6999 113.187 85.0855 113.277C85.8448 113.335 86.6041 113.393 87.1621 113.962C87.72 114.532 87.7916 115.266 87.8632 116.001C87.899 116.368 87.9468 116.858 88.0952 117.092C88.2197 117.081 88.7061 116.916 89.0797 116.883C89.8152 116.697 90.5506 116.51 91.2092 116.823C91.8678 117.137 92.1886 117.85 92.5093 118.563C92.6697 118.92 92.842 119.398 93.103 119.499C93.3522 119.478 93.702 119.201 94.0518 118.924C94.6507 118.625 95.2377 118.204 95.8605 118.151Z" fill="black"/>
<path fill-rule="evenodd" clip-rule="evenodd" d="M92.7345 97.6804C91.987 97.7448 91.2754 98.1764 90.8249 98.7091C90.3744 99.2417 90.0723 100.008 90.1439 100.743C90.2155 101.478 90.6608 102.18 91.2069 102.627C91.7529 103.073 92.5361 103.376 93.2835 103.312C94.0309 103.247 94.7425 102.816 95.193 102.283C95.6436 101.751 95.9457 100.984 95.874 100.249C95.8024 99.5147 95.3571 98.8123 94.8111 98.3656C94.2651 97.9188 93.4819 97.616 92.7345 97.6804ZM93.91 99.4308C93.637 99.2075 93.2514 99.1172 92.8777 99.1494C92.504 99.1817 92.1422 99.3363 91.9169 99.6026C91.6917 99.8689 91.6029 100.247 91.6387 100.614C91.6745 100.981 91.8349 101.338 92.1079 101.561C92.3809 101.785 92.7666 101.875 93.1403 101.843C93.514 101.811 93.8757 101.656 94.101 101.39C94.3263 101.123 94.415 100.745 94.3792 100.378C94.468 100 94.183 99.6542 93.91 99.4308ZM100.244 97.4036L93.3171 110.099C93.1038 110.488 93.2641 110.844 93.6617 111.057C94.0593 111.269 94.4211 111.115 94.6344 110.726L101.562 98.0308C101.775 97.6421 101.615 97.2855 101.217 97.0729C100.831 96.9826 100.333 97.0256 100.244 97.4036ZM101.459 104.706C100.711 104.77 99.9997 105.202 99.5492 105.735C99.0987 106.267 98.7966 107.034 98.8682 107.769C98.9398 108.503 99.3851 109.206 99.9311 109.652C100.477 110.099 101.26 110.402 102.008 110.338C102.755 110.273 103.467 109.842 103.917 109.309C104.368 108.776 104.67 108.01 104.598 107.275C104.527 106.54 104.081 105.838 103.535 105.391C102.989 104.945 102.331 104.631 101.459 104.706ZM102.759 106.446C102.486 106.222 102.1 106.132 101.727 106.164C101.353 106.197 100.991 106.351 100.766 106.618C100.541 106.884 100.452 107.262 100.488 107.629C100.523 107.996 100.684 108.353 100.957 108.576C101.23 108.8 101.615 108.89 101.989 108.858C102.363 108.826 102.725 108.671 102.95 108.405C103.175 108.138 103.264 107.76 103.228 107.393C103.192 107.026 103.032 106.669 102.759 106.446Z" fill="black"/>
<path d="M247.937 93.7449C247.937 97.3404 244.939 100.318 241.161 100.318C237.383 100.318 234.384 97.3404 234.384 93.7449C234.384 90.1493 237.383 87.1714 241.161 87.1714C244.939 87.1714 247.937 90.1493 247.937 93.7449Z" stroke="white" stroke-width="3"/>
<path d="M70.9171 32.1561C70.9171 35.7518 67.9185 38.7297 64.1408 38.7297C60.363 38.7297 57.3644 35.7518 57.3644 32.1561C57.3644 28.5605 60.363 25.5825 64.1408 25.5825C67.9185 25.5825 70.9171 28.5605 70.9171 32.1561Z" stroke="white" stroke-width="3"/>
<path d="M1450.05 126.074C1450.05 129.669 1447.05 132.647 1443.28 132.647C1439.5 132.647 1436.5 129.669 1436.5 126.074C1436.5 122.478 1439.5 119.5 1443.28 119.5C1447.05 119.5 1450.05 122.478 1450.05 126.074Z" stroke="white" stroke-width="3"/>
<path d="M1689.05 40.0736C1689.05 43.6693 1686.05 46.6472 1682.28 46.6472C1678.5 46.6472 1675.5 43.6693 1675.5 40.0736C1675.5 36.478 1678.5 33.5 1682.28 33.5C1686.05 33.5 1689.05 36.478 1689.05 40.0736Z" stroke="white" stroke-width="3"/>
<path d="M335.383 48.9434L341.513 38.5869L347.642 48.9434H335.383Z" stroke="white" stroke-width="3"/>
<path d="M1380.34 43.3598L1388.19 34.1741L1392.42 45.3983L1380.34 43.3598Z" stroke="white" stroke-width="3"/>
<path d="M1679.05 140.771L1686.9 131.585L1691.13 142.809L1679.05 140.771Z" stroke="white" stroke-width="3"/>
<defs>
<linearGradient id="paint0_linear" x1="215.688" y1="49.9102" x2="-508.745" y2="1245.96" gradientUnits="userSpaceOnUse">
<stop stop-color="#E6EDF9"/>
<stop offset="1" stop-color="white"/>
</linearGradient>
<linearGradient id="paint1_linear" x1="215.688" y1="49.9102" x2="-508.745" y2="1245.96" gradientUnits="userSpaceOnUse">
<stop stop-color="#E6EDF9"/>
<stop offset="1" stop-color="white"/>
</linearGradient>
<linearGradient id="paint2_linear" x1="215.688" y1="49.9102" x2="-508.745" y2="1245.96" gradientUnits="userSpaceOnUse">
<stop stop-color="#E6EDF9"/>
<stop offset="1" stop-color="white"/>
</linearGradient>
<linearGradient id="paint3_linear" x1="83.8647" y1="205.658" x2="1307.26" y2="423.101" gradientUnits="userSpaceOnUse">
<stop offset="0.0416667" stop-color="#F3EFFF"/>
<stop offset="1" stop-color="#E6EDF9"/>
</linearGradient>
<linearGradient id="paint4_linear" x1="80.4796" y1="214.954" x2="1260.17" y2="407.463" gradientUnits="userSpaceOnUse">
<stop offset="0.0416667" stop-color="white"/>
<stop offset="1" stop-color="#E6EDF9"/>
</linearGradient>
<linearGradient id="paint5_linear" x1="83.8647" y1="205.658" x2="1307.26" y2="423.101" gradientUnits="userSpaceOnUse">
<stop stop-color="#E9F0F9"/>
<stop offset="1" stop-color="white"/>
</linearGradient>
<linearGradient id="paint6_linear" x1="974.28" y1="0" x2="974.28" y2="1829.76" gradientUnits="userSpaceOnUse">
<stop offset="0.0136914" stop-color="#F3F6F9"/>
<stop offset="1" stop-color="#FFEFDD"/>
</linearGradient>
</defs>
</svg>
